<svg id="Capa_2" data-name="Capa 2" xmlns="http://www.w3.org/2000/svg" viewBox="0 0 641.43669 591.15608">
  <defs>
    <style>
      .cls-1 {
        fill: #6363fc;
      }

      .cls-2 {
        fill: #3c3cbf;
      }

      .cls-3, .cls-4, .cls-5 {
        fill: #010001;
      }

      .cls-3, .cls-5 {
        stroke: #000;
      }

      .cls-3, .cls-5, .cls-6 {
        stroke-linecap: round;
        stroke-linejoin: round;
      }

      .cls-3, .cls-6 {
        stroke-width: 32px;
      }

      .cls-5 {
        stroke-width: 6px;
      }

      .cls-6 {
        fill: none;
        stroke: #161616;
      }

      .cls-7 {
        fill: #161616;
      }
    </style>
  </defs>
  <title>luho</title>
  <g>
    <path class="cls-1" d="M667.12388,462.73648c0,111.23122-64.203,205.62978-153.37638,239.29458a203.41589,203.41589,0,0,1-71.95537,13.149c-124.46573,0-225.37463-113.02977-225.37463-252.4436,0-139.45644,100.9089-252.48621,225.37463-252.48621A203.4215,203.4215,0,0,1,513.7475,223.399C602.92085,257.06409,667.12388,351.46265,667.12388,462.73648Z" transform="translate(-200.40856 -140.04173)"/>
    <path class="cls-2" d="M772.2301,321.01016c24.54211,40.38923,38.84739,89.17335,38.84739,141.72632,0,139.41383-100.9089,252.4436-225.37463,252.4436H441.79213a203.41589,203.41589,0,0,0,71.95537-13.149c89.17335-33.6648,153.37638-128.06336,153.37638-239.29458,0-111.27383-64.203-205.67239-153.37638-239.33744a203.4215,203.4215,0,0,0-71.95537-13.14877H585.70286a205.52545,205.52545,0,0,1,105.87739,29.553L825.8541,195.55915Z" transform="translate(-200.40856 -140.04173)"/>
    <path class="cls-3" d="M297.96686,508.13707s1.02794,40.08945,55.80828,45.015c44.02986,3.94041,46.38555,23.94231,45.6146,31.65182" transform="translate(-200.40856 -140.04173)"/>
    <path class="cls-3" d="M399.38974,584.80386c.64246-7.66668,6.63874-26.94045,51.825-22.87155,56.15092,5.054,64.46006-34.17882,64.46006-34.17882" transform="translate(-200.40856 -140.04173)"/>
    <circle class="cls-4" cx="149.44546" cy="272.27763" r="45.32514"/>
    <rect class="cls-4" x="432.24557" y="409.58894" width="115.72417" height="38.04495" transform="translate(-320.17836 60.61631) rotate(-20.67632)"/>
    <line class="cls-5" x1="571.8216" y1="180.96843" x2="532.80291" y2="272.28328"/>
    <line class="cls-5" x1="491.17157" y1="99.7616" x2="440.16031" y2="116.5512"/>
    <polyline class="cls-2" points="167.16 84.224 60.348 16 71.914 156.243"/>
    <path class="cls-1" d="M629.85051,262.31169l4.70473,3.556a225.67831,225.67831,0,0,1,86.94358,145.5165l1.12,7.23565L825.84525,215.71575l-37.56856-5.46548Z" transform="translate(-200.40856 -140.04173)"/>
  </g>
  <g>
    <path class="cls-6" d="M664.07405,504.21424c.98511-6.59591,1.71323-13.23466,2.22719-20.00189.12849-1.58474.257-3.16947.29982-4.797a10.50179,10.50179,0,0,0,.08566-1.15643c.08566-1.02793.12849-2.05587.17132-3.12663.04283-1.49907.12849-2.99814.12849-4.54q.12849-3.919.12849-7.838c0-111.27391-64.20307-205.67257-153.37639-239.33742a203.42043,203.42043,0,0,0-71.95542-13.149c-124.46574,0-225.37465,113.03-225.37465,252.48642,0,139.41362,100.90891,252.44359,225.37465,252.44359a203.42043,203.42043,0,0,0,71.95542-13.149c4.19739-1.58474,8.30913-3.298,12.378-5.13968,1.37058-.59962,2.69833-1.24208,4.02608-1.88454,1.37058-.64246,2.69833-1.28492,4.02607-1.97021,1.32775-.64246,2.6555-1.32775,3.94042-2.05587,1.32775-.68529,2.6555-1.41341,3.94042-2.14153,1.19925-.59963,2.35568-1.28492,3.46928-1.92738,2.86965-1.71322,5.69647-3.42645,8.48045-5.1825,1.1136-.72812,2.2272-1.45624,3.298-2.22719,5.09684-3.38362,10.02236-7.02422,14.81939-10.79331,1.24209-1.02794,2.44135-2.013,3.68343-3.041s2.48418-2.05587,3.68344-3.12663c2.44134-2.14153,4.88268-4.32589,7.23837-6.55308s4.66853-4.49722,6.93856-6.81007a.09212.09212,0,0,0,.08566-.08566c2.27-2.31285,4.49721-4.71137,6.68157-7.10988,2.18436-2.44135,4.36872-4.92552,6.46742-7.49536a7.45333,7.45333,0,0,0,.514-.59963c1.92738-2.35568,3.81192-4.71136,5.65364-7.15271.04283,0,.04283-.04283.08566-.08566,1.84172-2.44134,3.68343-4.92552,5.48232-7.45252a3.5722,3.5722,0,0,1,.34264-.514c1.92738-2.74116,3.81193-5.52515,5.568-8.30914,1.84172-2.784,3.59777-5.65364,5.311-8.56612.94227-1.5419,1.84171-3.12664,2.69833-4.71137.72812-1.24209,1.41341-2.527,2.0987-3.81192q5.78212-10.66482,10.66482-22.05776" transform="translate(-200.40856 -140.04173)"/>
    <path class="cls-6" d="M645.31425,571.24414q-4.8827,11.37152-10.66482,22.05776c-.68529,1.28492-1.37058,2.56983-2.0987,3.81192-.85662,1.58473-1.75606,3.16947-2.69833,4.71137-1.71323,2.91248-3.46928,5.78213-5.311,8.56612-1.756,2.784-3.6406,5.568-5.568,8.30914a3.5722,3.5722,0,0,0-.34264.514c-1.79889,2.527-3.6406,5.01118-5.48232,7.45252-.04283.04283-.04283.08566-.08566.08566-1.84172,2.44135-3.72626,4.797-5.65364,7.15271a7.45333,7.45333,0,0,1-.514.59963c-2.0987,2.56984-4.28306,5.054-6.46742,7.49536-2.18436,2.39851-4.41155,4.797-6.68157,7.10988a.09212.09212,0,0,1-.08566.08566q-3.405,3.46928-6.93856,6.81007c-2.35569,2.22719-4.797,4.41155-7.23837,6.55308-1.19926,1.07076-2.44135,2.0987-3.68344,3.12663s-2.44134,2.013-3.68343,3.041c-4.797,3.76909-9.72255,7.40969-14.81939,10.79331-1.07076.77095-2.18436,1.49907-3.298,2.22719-2.784,1.756-5.6108,3.46928-8.48045,5.1825-1.1136.64246-2.27,1.32775-3.46928,1.92738-1.28492.77095-2.61267,1.45624-3.94042,2.14153-1.28492.72812-2.61267,1.41341-3.94042,2.05587-1.32774.68529-2.65549,1.37058-4.02607,1.97021-1.32775.64246-2.6555,1.28492-4.02608,1.88454-4.06891,1.84172-8.18065,3.55494-12.378,5.13968a203.42043,203.42043,0,0,1-71.95542,13.149H585.694c124.46574,0,225.37465-113.03,225.37465-252.44359,0-52.55315-14.30542-101.33721-38.84736-141.72647l53.62392-125.45085-134.274,44.244A205.523,205.523,0,0,0,585.694,210.26779H441.78321a203.42043,203.42043,0,0,1,71.95542,13.149C602.912,257.08164,667.115,351.4803,667.115,462.75421q0,3.919-.12849,7.838c0,1.54191-.08566,3.041-.12849,4.54-.04283,1.07076-.08566,2.0987-.17132,3.12663a10.50179,10.50179,0,0,1-.08566,1.15643c-.04283,1.62756-.17133,3.21229-.29982,4.797-.514,6.76723-1.24208,13.406-2.22719,20.00189" transform="translate(-200.40856 -140.04173)"/>
    <path class="cls-6" d="M297.96686,508.13707s1.02794,40.08945,55.80828,45.015c44.02986,3.94041,46.38555,23.94231,45.6146,31.65182" transform="translate(-200.40856 -140.04173)"/>
    <path class="cls-6" d="M399.38974,584.80386c.64246-7.66668,6.63874-26.94045,51.825-22.87155,56.15092,5.054,64.46006-34.17882,64.46006-34.17882" transform="translate(-200.40856 -140.04173)"/>
    <circle class="cls-7" cx="149.44546" cy="272.27763" r="45.32514"/>
    <rect class="cls-7" x="432.24557" y="409.58894" width="115.72417" height="38.04495" transform="translate(-320.17836 60.61631) rotate(-20.67632)"/>
    <line class="cls-6" x1="571.8216" y1="180.96843" x2="532.80291" y2="272.28328"/>
    <path class="cls-6" d="M691.58013,239.80333l-51.01125,16.7896s22.32239,13.34354,46.89115,46.3843" transform="translate(-200.40856 -140.04173)"/>
    <polyline class="cls-6" points="167.16 84.224 60.348 16 71.914 156.243"/>
  </g>
</svg>
