<svg xmlns="http://www.w3.org/2000/svg" viewBox="0 0 590 406"><defs><style>.cls-1,.cls-5,.cls-7{fill:none;}.cls-1,.cls-3,.cls-4,.cls-7{stroke:#000;}.cls-1,.cls-7{stroke-miterlimit:10;}.cls-1,.cls-3,.cls-5{stroke-width:10px;}.cls-2,.cls-3,.cls-4{fill:#010001;}.cls-3,.cls-4,.cls-5{stroke-linecap:round;stroke-linejoin:round;}.cls-4{stroke-width:6px;}.cls-5{stroke:#161616;}.cls-6{fill:#161616;}</style></defs><title>pantalla</title><g id="Capa_2" data-name="Capa 2"><rect class="cls-1" x="5" y="5" width="580" height="396" rx="37.97"/><path d="M209.71,300.18h-46c-1.91,0-3.47-2.36-3.47-5.26V250.6c0-2.91,1.56-5.26,3.47-5.26h46c1.92,0,3.47,2.35,3.47,5.26v44.32C213.18,297.82,211.63,300.18,209.71,300.18Z" transform="translate(-126 -216)"/><path d="M337.44,269.65H257.55c-3.33,0-6-1-6-2.34V247.67c0-1.29,2.69-2.33,6-2.33h79.89c3.33,0,6,1,6,2.33v19.64C343.46,268.6,340.77,269.65,337.44,269.65Z" transform="translate(-126 -216)"/><path d="M337.44,312.88H257.55c-3.33,0-6-.54-6-1.22V301.4c0-.68,2.69-1.22,6-1.22h79.89c3.33,0,6,.54,6,1.22v10.26C343.46,312.34,340.77,312.88,337.44,312.88Z" transform="translate(-126 -216)"/><path d="M337.44,338.71H257.55c-3.33,0-6-.54-6-1.21V327.23c0-.67,2.69-1.22,6-1.22h79.89c3.33,0,6,.55,6,1.22V337.5C343.46,338.17,340.77,338.71,337.44,338.71Z" transform="translate(-126 -216)"/><path d="M337.44,361.4H257.55c-3.33,0-6-.55-6-1.22V349.91c0-.67,2.69-1.22,6-1.22h79.89c3.33,0,6,.55,6,1.22v10.27C343.46,360.85,340.77,361.4,337.44,361.4Z" transform="translate(-126 -216)"/><path d="M337.44,424.16H257.55c-3.33,0-6-.54-6-1.21V412.68c0-.67,2.69-1.22,6-1.22h79.89c3.33,0,6,.55,6,1.22V423C343.46,423.62,340.77,424.16,337.44,424.16Z" transform="translate(-126 -216)"/><path d="M337.44,448.66H257.55c-3.33,0-6-.54-6-1.22V437.18c0-.68,2.69-1.22,6-1.22h79.89c3.33,0,6,.54,6,1.22v10.26C343.46,448.12,340.77,448.66,337.44,448.66Z" transform="translate(-126 -216)"/><path d="M337.44,503.16H257.55c-3.33,0-6-.54-6-1.21V491.68c0-.67,2.69-1.22,6-1.22h79.89c3.33,0,6,.55,6,1.22V502C343.46,502.62,340.77,503.16,337.44,503.16Z" transform="translate(-126 -216)"/><path d="M337.44,526.49H257.55c-3.33,0-6-.54-6-1.21V515c0-.67,2.69-1.22,6-1.22h79.89c3.33,0,6,.55,6,1.22v10.27C343.46,526,340.77,526.49,337.44,526.49Z" transform="translate(-126 -216)"/><path d="M337.44,548.65H257.55c-3.33,0-6-.55-6-1.22V537.16c0-.67,2.69-1.21,6-1.21h79.89c3.33,0,6,.54,6,1.21v10.27C343.46,548.1,340.77,548.65,337.44,548.65Z" transform="translate(-126 -216)"/><path d="M337.44,571.86H257.55c-3.33,0-6-.55-6-1.22V560.37c0-.67,2.69-1.22,6-1.22h79.89c3.33,0,6,.55,6,1.22v10.27C343.46,571.31,340.77,571.86,337.44,571.86Z" transform="translate(-126 -216)"/><path d="M337.44,592.66H257.55c-3.33,0-6-.54-6-1.22V581.18c0-.68,2.69-1.22,6-1.22h79.89c3.33,0,6,.54,6,1.22v10.26C343.46,592.12,340.77,592.66,337.44,592.66Z" transform="translate(-126 -216)"/><path d="M209.71,374.82h-46c-1.91,0-3.47-2.36-3.47-5.26V325.23c0-2.9,1.56-5.25,3.47-5.25h46c1.92,0,3.47,2.35,3.47,5.25v44.33C213.18,372.46,211.63,374.82,209.71,374.82Z" transform="translate(-126 -216)"/><path d="M209.71,448.66h-46c-1.91,0-3.47-2.35-3.47-5.26V399.08c0-2.9,1.56-5.26,3.47-5.26h46c1.92,0,3.47,2.36,3.47,5.26V443.4C213.18,446.31,211.63,448.66,209.71,448.66Z" transform="translate(-126 -216)"/><path d="M209.71,520.66h-46c-1.91,0-3.47-2.35-3.47-5.26V471.08c0-2.9,1.56-5.26,3.47-5.26h46c1.92,0,3.47,2.36,3.47,5.26V515.4C213.18,518.31,211.63,520.66,209.71,520.66Z" transform="translate(-126 -216)"/><path d="M209.71,592.66h-46c-1.91,0-3.47-2.35-3.47-5.26V543.08c0-2.9,1.56-5.26,3.47-5.26h46c1.92,0,3.47,2.36,3.47,5.26V587.4C213.18,590.31,211.63,592.66,209.71,592.66Z" transform="translate(-126 -216)"/><line class="cls-1" x1="114.08" y1="5" x2="114.08" y2="401"/><line class="cls-1" x1="230.65" y1="401" x2="230.65" y2="5"/><circle class="cls-2" cx="336.89" cy="202.68" r="17.81"/><rect class="cls-2" x="495.26" y="417.61" width="45.47" height="14.95" transform="translate(-242.73 -5.72) rotate(-20.68)"/><line class="cls-3" x1="502.86" y1="166.8" x2="487.52" y2="202.68"/><line class="cls-4" x1="471.16" y1="134.89" x2="451.12" y2="141.49"/><path class="cls-5" d="M586.36,454.79c.38-2.59.67-5.2.87-7.86,0-.62.1-1.25.12-1.89a3.4,3.4,0,0,0,0-.45c0-.4,0-.81.07-1.23,0-.59,0-1.18,0-1.78,0-1,0-2.06,0-3.08,0-43.73-25.23-80.82-60.27-94.05A79.86,79.86,0,0,0,499,339.29c-48.91,0-88.56,44.41-88.56,99.21S450.1,537.69,499,537.69a79.86,79.86,0,0,0,28.27-5.16q2.47-.94,4.87-2c.54-.24,1.06-.49,1.58-.74s1.06-.51,1.58-.78,1.05-.52,1.55-.81,1-.55,1.55-.84.92-.5,1.36-.75c1.13-.68,2.24-1.35,3.33-2,.44-.29.88-.57,1.3-.88,2-1.33,3.94-2.76,5.82-4.24l1.45-1.19c.49-.41,1-.81,1.45-1.23,1-.84,1.92-1.7,2.84-2.58s1.84-1.76,2.73-2.67c0,0,0,0,0,0,.89-.9,1.77-1.85,2.63-2.79s1.71-1.93,2.54-2.94c.07-.07.13-.16.2-.24.76-.93,1.5-1.85,2.22-2.81,0,0,0,0,0,0,.72-1,1.44-1.94,2.15-2.93a.86.86,0,0,1,.13-.2c.76-1.08,1.5-2.18,2.19-3.27s1.42-2.22,2.09-3.37c.37-.6.72-1.22,1.06-1.85s.56-1,.82-1.49q2.28-4.2,4.2-8.67" transform="translate(-126 -216)"/><path class="cls-5" d="M579,481.13q-1.92,4.47-4.2,8.67c-.26.5-.53,1-.82,1.49s-.69,1.25-1.06,1.85c-.67,1.15-1.36,2.28-2.09,3.37s-1.43,2.19-2.19,3.27a.86.86,0,0,0-.13.2c-.71,1-1.43,2-2.15,2.93,0,0,0,0,0,0-.72,1-1.46,1.88-2.22,2.81-.07.08-.13.17-.2.24-.83,1-1.68,2-2.54,2.94s-1.74,1.89-2.63,2.79c0,0,0,0,0,0q-1.34,1.37-2.73,2.67c-.92.88-1.88,1.74-2.84,2.58-.47.42-1,.82-1.45,1.23l-1.45,1.19c-1.88,1.48-3.82,2.91-5.82,4.24-.42.31-.86.59-1.3.88-1.09.69-2.2,1.36-3.33,2-.44.25-.89.52-1.36.75s-1,.57-1.55.84-1,.56-1.55.81-1,.54-1.58.78-1,.5-1.58.74q-2.4,1.08-4.87,2A79.86,79.86,0,0,1,499,537.69h56.55c48.91,0,88.56-44.41,88.56-99.19a107.06,107.06,0,0,0-15.27-55.69l21.07-49.3L597.16,350.9a80.7,80.7,0,0,0-41.6-11.61H499a79.86,79.86,0,0,1,28.27,5.16c35,13.23,60.27,50.32,60.27,94.05,0,1,0,2.05,0,3.08,0,.6,0,1.19,0,1.78,0,.42,0,.83-.07,1.23a3.4,3.4,0,0,1,0,.45c0,.64-.07,1.27-.12,1.89-.2,2.66-.49,5.27-.87,7.86" transform="translate(-126 -216)"/><circle class="cls-6" cx="336.89" cy="202.68" r="17.81"/><rect class="cls-6" x="495.26" y="417.61" width="45.47" height="14.95" transform="translate(-242.73 -5.72) rotate(-20.68)"/><line class="cls-5" x1="502.86" y1="166.8" x2="487.52" y2="202.68"/><path class="cls-5" d="M597.16,350.89l-20,6.6s8.77,5.24,18.43,18.22" transform="translate(-126 -216)"/><polyline class="cls-5" points="343.85 128.79 301.88 101.98 306.42 157.09"/><path class="cls-7" d="M422.55,290.54" transform="translate(-126 -216)"/><path class="cls-5" d="M527.78,464s-2.59,13.86-22.32,10.73-23.58,8.48-23.58,8.48-.08-12.22-19.81-15.35-17.92-17.1-17.92-17.1" transform="translate(-126 -216)"/></g></svg>