<svg id="puño" xmlns="http://www.w3.org/2000/svg" viewBox="0 0 624.28935 569.62677"><defs><style>.cls-1{fill:#a2adf4;}.cls-2{fill:#6363fc;}.cls-3{fill:#d4d4ff;}.cls-4{fill:#cfd6ff;}.cls-5,.cls-8{fill:none;}.cls-5{stroke:#000;stroke-miterlimit:10;}.cls-6{fill:#1858e8;}.cls-7{fill:#fff;}.cls-8{stroke:#161616;stroke-linecap:round;stroke-linejoin:round;stroke-width:14px;}</style></defs><title>puño</title><path class="cls-1" d="M570.0713,720.04265v43.18293S436.38717,707.36574,302.703,707.36574l57.85976-96.82269s87.53535,5.203,150.1235,20.74407l-.08472,48.72488S511.92346,719.09358,570.0713,720.04265Z" transform="translate(-220.15021 -249.49323)"/><path class="cls-2" d="M837.436,707.36236v42.4049s-79.53915-4.85453-259.637,52.404a7.78738,7.78738,0,0,1,.25212,1.967,7.98164,7.98164,0,1,1-15.96327,0,7.78786,7.78786,0,0,1,.2522-1.967c-180.1105-57.25855-259.637-52.404-259.637-52.404v-42.4049c133.68325,0,267.36651,55.87156,267.36651,55.87156S703.75272,707.36236,837.436,707.36236Z" transform="translate(-220.15021 -249.49323)"/><path class="cls-3" d="M837.43956,707.36574c-133.68413,0-267.36826,55.85984-267.36826,55.85984V720.04265c.72874.03393,1.47445.03393,2.22016.03393,60.33417,0,57.21573-40.06458,57.21573-40.06458l.08472-48.75881C692.1632,615.746,779.5798,610.54305,779.5798,610.54305Z" transform="translate(-220.15021 -249.49323)"/><path class="cls-4" d="M626.93146,336.79181s49.09773-4.49116,25.52336,56.09717" transform="translate(-220.15021 -249.49323)"/><path class="cls-5" d="M514.11006,373.82272l31.45508,24.74376a27.02357,27.02357,0,0,0,9.54161,4.18611" transform="translate(-220.15021 -249.49323)"/><path class="cls-2" d="M629.8801,467.69021l-.28819,163.563-.08472,48.75881s3.11844,40.06458-57.21573,40.06458c-.74571,0-1.49142,0-2.22016-.03393-58.14784-.94907-59.46972-40.03065-59.46972-40.03065l.08472-48.72488.28808-153.56385L472.4521,448.94586a57.32593,57.32593,0,0,1-22.57446-53.13126l2.03376-16.11736c.08472-.661.1864-1.32187.28808-1.98286a53.67522,53.67522,0,0,1,22.69311-35.64124,51.15049,51.15049,0,0,1,6.32149-3.72843l8.50782-4.25391a58.59877,58.59877,0,0,1,6.49093-2.74554,55.58081,55.58081,0,0,1,45.92855,4.16909l28.896,16.4733,3.81325,2.16927a25.8095,25.8095,0,0,1,11.15167,12.55836,26.355,26.355,0,0,1,1.32187,16.42241,25.96894,25.96894,0,0,1-7.55864,12.88027,27.32178,27.32178,0,0,1-24.65911,6.72833c.57627.38976,7.03337,5.25377,10.93134,19.795l63.96092,25.20134C629.76145,451.75925,629.8801,457.50457,629.8801,467.69021Z" transform="translate(-220.15021 -249.49323)"/><line class="cls-5" x1="296.16305" y1="232.21908" x2="290.8245" y2="228.23635"/><path class="cls-5" d="M566.03807,422.5476c3.13534,11.71092,4.59285,29.72641-.08474,56.77508" transform="translate(-220.15021 -249.49323)"/><path class="cls-5" d="M555.10675,402.75259l-.0339-.0339" transform="translate(-220.15021 -249.49323)"/><path class="cls-4" d="M526.3972,328.21623c-4.81317-19.28658-9.52466-33.76-14.25309-44.40319v-.017" transform="translate(-220.15021 -249.49323)"/><path class="cls-2" d="M571.03734,351.98765l-28.896-16.4733a55.58081,55.58081,0,0,0-45.92855-4.16909,58.59877,58.59877,0,0,0-6.49093,2.74554l-8.50782,4.25391a51.15049,51.15049,0,0,0-6.32149,3.72843,208.54525,208.54525,0,0,1-12.21939-23.93027c-8.13492-18.94761-14.89707-43.62358.03393-52.2669,19.3713-11.20246,34.47173-15.86311,49.43666,17.91382.08471-.72875,2.59306-21.21866,37.72578-18.13415,12.57523,1.10154,18.93065,12.1176,21.87954,25.91312C577.17243,317.02437,571.03734,351.98765,571.03734,351.98765Z" transform="translate(-220.15021 -249.49323)"/><path class="cls-5" d="M512.14411,283.813v-.017" transform="translate(-220.15021 -249.49323)"/><line class="cls-5" x1="418.67859" y1="175.39316" x2="418.66164" y2="175.39316"/><path class="cls-4" d="M606.95,374.97517c.27116-.79655.47454-1.32193.54233-1.50835a.71109.71109,0,0,1,.03389-.08474s.68255-.93977,1.81581-2.62468c3.73431-5.55212,12.36259-19.19527,17.58941-33.96559,6.08425-17.185,7.55871-35.9293-8.67727-45.19974-33.70914-19.25268-46.01323-.79655-46.50472-.01695a.0166.0166,0,0,0-.01695.01695" transform="translate(-220.15021 -249.49323)"/><path class="cls-5" d="M606.645,374.83959a13.49409,13.49409,0,0,0,.84739-1.37277.71109.71109,0,0,1,.03389-.08474" transform="translate(-220.15021 -249.49323)"/><polygon class="cls-5" points="600.071 209.475 578.022 264.488 543.16 250.76 565.209 195.747 600.071 209.475"/><path class="cls-6" d="M474.89259,342.07314a53.67522,53.67522,0,0,0-22.69311,35.64124L295.82224,316.10922h-.017l-.7965-.69491,21.77786-54.36852,1.06772.05089L462.6732,318.14287A208.54525,208.54525,0,0,0,474.89259,342.07314Z" transform="translate(-220.15021 -249.49323)"/><path class="cls-6" d="M785.35905,445.2344,763.31,500.24684,629.99864,447.74263l-63.96092-25.20134c-3.898-14.54123-10.35507-19.40524-10.93134-19.795a27.32178,27.32178,0,0,0,24.65911-6.72833,25.96894,25.96894,0,0,0,7.55864-12.88027,26.355,26.355,0,0,0-1.32187-16.42241l20.62542,8.118h.017l.30505.13561,45.50475,17.91383Z" transform="translate(-220.15021 -249.49323)"/><line class="cls-5" x1="97.7045" y1="11.60978" x2="96.75542" y2="11.23693"/><line class="cls-5" x1="75.65543" y1="66.62228" x2="74.7233" y2="66.24943"/><line class="cls-5" x1="96.75542" y1="11.23693" x2="96.63679" y2="11.55893"/><line class="cls-5" x1="74.85889" y1="65.92743" x2="74.7233" y2="66.24943"/><polygon class="cls-5" points="96.637 11.559 74.859 65.927 43.2 38.438 54.827 9.424 96.637 11.559"/><polygon class="cls-6" points="54.827 9.424 43.2 38.438 7 7 54.827 9.424"/><path class="cls-2" d="M576.24348,358.30267l.80533.36187L606.645,371.96333l14.10042-30.00317L629.21,311.11892l-18.27009-23.63378-34.69639,1.00569s-2.51424,17.59962-2.51424,18.77293-3.18469,38.21633-3.18469,38.21633" transform="translate(-220.15021 -249.49323)"/><polygon class="cls-2" points="406.781 87.299 391.963 124.329 429.844 139.734 433.999 138.794 438.392 111.91 432.861 92.802 406.781 87.299"/><path class="cls-7" d="M515.73709,292.658s40.39253-11.09527,54.80746-3.94368v16.07233s23.59086-13.614,59.45409,18.79168l-6.82284,28.40932s23.92586-.47341,33.64119,19.97568l-1-19.97568S643.17121,337.658,642.8952,337.658s-12.89656-.86622-12.89656-.86622,1.60347-12.89631,1.1896-14.10743-4.25678-25.92452-4.25678-25.92452l-29.90367-10.44772-23.03995-1.3971-14.30612-15.70749H521.4891L513.92575,288.008Z" transform="translate(-220.15021 -249.49323)"/><path class="cls-7" d="M458.68918,298.10079s15.44921-24.2692,50.18718-21.07409l-9.2891-13.12766L480.59093,259.661l-21.90175,12.51528L454.10182,288.749Z" transform="translate(-220.15021 -249.49323)"/><path class="cls-7" d="M561.49332,481.71231s-15.42062-65.50088-51.84905-103.99793l36.65191,18.05034,25.43634,2.45836,13.63885-18.54944s-69.46946-59.6711-128.91707-11.84483l30.61776-34.64052h25.072l14.25309-1.11744,23.14879,7.66479,26.474,17.1423,11.42431,14.39394.86749,17.95584-16.57927,13.52487-10.64352.65458.40432,3.48441,4.46,19.26741,2.99446,29.05334-4.10216,26.5Z" transform="translate(-220.15021 -249.49323)"/><path class="cls-8" d="M570.0713,720.04265v43.18293S436.38717,707.36574,302.703,707.36574l57.85976-96.82269s87.53535,5.203,150.1235,20.74407l-.08472,48.72488S511.92346,719.09358,570.0713,720.04265Z" transform="translate(-220.15021 -249.49323)"/><path class="cls-8" d="M837.436,707.36236v42.4049s-79.53915-4.85453-259.637,52.404a7.78738,7.78738,0,0,1,.25212,1.967,7.98164,7.98164,0,1,1-15.96327,0,7.78786,7.78786,0,0,1,.2522-1.967c-180.1105-57.25855-259.637-52.404-259.637-52.404v-42.4049c133.68325,0,267.36651,55.87156,267.36651,55.87156S703.75272,707.36236,837.436,707.36236Z" transform="translate(-220.15021 -249.49323)"/><path class="cls-8" d="M837.43956,707.36574c-133.68413,0-267.36826,55.85984-267.36826,55.85984V720.04265c.72874.03393,1.47445.03393,2.22016.03393,60.33417,0,57.21573-40.06458,57.21573-40.06458l.08472-48.75881C692.1632,615.746,779.5798,610.54305,779.5798,610.54305Z" transform="translate(-220.15021 -249.49323)"/><path class="cls-8" d="M626.93146,336.79181s49.09773-4.49116,25.52336,56.09717" transform="translate(-220.15021 -249.49323)"/><path class="cls-8" d="M514.11006,373.82272l31.45508,24.74376a27.02357,27.02357,0,0,0,9.54161,4.18611" transform="translate(-220.15021 -249.49323)"/><path class="cls-8" d="M629.8801,467.69021l-.28819,163.563-.08472,48.75881s3.11844,40.06458-57.21573,40.06458c-.74571,0-1.49142,0-2.22016-.03393-58.14784-.94907-59.46972-40.03065-59.46972-40.03065l.08472-48.72488.28808-153.56385L472.4521,448.94586a57.32593,57.32593,0,0,1-22.57446-53.13126l2.03376-16.11736c.08472-.661.1864-1.32187.28808-1.98286a53.67522,53.67522,0,0,1,22.69311-35.64124,51.15049,51.15049,0,0,1,6.32149-3.72843l8.50782-4.25391a58.59877,58.59877,0,0,1,6.49093-2.74554,55.58081,55.58081,0,0,1,45.92855,4.16909l28.896,16.4733,3.81325,2.16927a25.8095,25.8095,0,0,1,11.15167,12.55836,26.355,26.355,0,0,1,1.32187,16.42241,25.96894,25.96894,0,0,1-7.55864,12.88027,27.32178,27.32178,0,0,1-24.65911,6.72833c.57627.38976,7.03337,5.25377,10.93134,19.795l63.96092,25.20134C629.76145,451.75925,629.8801,457.50457,629.8801,467.69021Z" transform="translate(-220.15021 -249.49323)"/><line class="cls-8" x1="296.16305" y1="232.21908" x2="290.8245" y2="228.23635"/><path class="cls-8" d="M566.03807,422.5476c3.13534,11.71092,4.59285,29.72641-.08474,56.77508" transform="translate(-220.15021 -249.49323)"/><path class="cls-8" d="M555.10675,402.75259l-.0339-.0339" transform="translate(-220.15021 -249.49323)"/><path class="cls-8" d="M526.3972,328.21623c-4.81317-19.28658-9.52466-33.76-14.25309-44.40319v-.017" transform="translate(-220.15021 -249.49323)"/><path class="cls-8" d="M571.03734,351.98765l-28.896-16.4733a55.58081,55.58081,0,0,0-45.92855-4.16909,58.59877,58.59877,0,0,0-6.49093,2.74554l-8.50782,4.25391a51.15049,51.15049,0,0,0-6.32149,3.72843,208.54525,208.54525,0,0,1-12.21939-23.93027c-8.13492-18.94761-14.89707-43.62358.03393-52.2669,19.3713-11.20246,34.47173-15.86311,49.43666,17.91382.08471-.72875,2.59306-21.21866,37.72578-18.13415,12.57523,1.10154,18.93065,12.1176,21.87954,25.91312C577.17243,317.02437,571.03734,351.98765,571.03734,351.98765Z" transform="translate(-220.15021 -249.49323)"/><path class="cls-8" d="M512.14411,283.813v-.017" transform="translate(-220.15021 -249.49323)"/><path class="cls-8" d="M606.95,374.97517c.27116-.79655.47454-1.32193.54233-1.50835a.71109.71109,0,0,1,.03389-.08474s12.59221-17.33759,19.40522-36.59027c6.08425-17.185,7.55871-35.9293-8.67727-45.19974-33.70914-19.25268-46.01323-.79655-46.50472-.01695a.0166.0166,0,0,0-.01695.01695" transform="translate(-220.15021 -249.49323)"/><path class="cls-8" d="M606.645,374.83959a13.49409,13.49409,0,0,0,.84739-1.37277.71109.71109,0,0,1,.03389-.08474" transform="translate(-220.15021 -249.49323)"/><polygon class="cls-8" points="600.071 209.475 578.022 264.488 543.16 250.76 565.209 195.747 600.071 209.475"/><path class="cls-8" d="M474.89259,342.07314a53.67522,53.67522,0,0,0-22.69311,35.64124L295.82224,316.10922h-.017l-.7965-.69491,21.77786-54.36852,1.06772.05089L462.6732,318.14287A208.54525,208.54525,0,0,0,474.89259,342.07314Z" transform="translate(-220.15021 -249.49323)"/><path class="cls-8" d="M785.35905,445.2344,763.31,500.24684,629.99864,447.74263l-63.96092-25.20134c-3.898-14.54123-10.35507-19.40524-10.93134-19.795a27.32178,27.32178,0,0,0,24.65911-6.72833,25.96894,25.96894,0,0,0,7.55864-12.88027,26.355,26.355,0,0,0-1.32187-16.42241l20.62542,8.118h.017l.30505.13561,45.50475,17.91383Z" transform="translate(-220.15021 -249.49323)"/><polygon class="cls-8" points="96.637 11.559 74.859 65.927 43.2 38.438 54.827 9.424 96.637 11.559"/><polygon class="cls-8" points="54.827 9.424 43.2 38.438 7 7 54.827 9.424"/><path class="cls-7" d="M580.78547,505.24012,542.60423,577.65s41.12166,20.44891,52.68713,56.05331C595.29136,633.7033,575.412,529.36816,580.78547,505.24012Z" transform="translate(-220.15021 -249.49323)"/></svg>