<svg id="Layer_5" data-name="Layer 5" xmlns="http://www.w3.org/2000/svg" viewBox="0 0 436.55 570.26"><defs><style>.cls-1,.cls-3,.cls-4{fill:none;}.cls-1{stroke:#161616;stroke-width:18px;}.cls-1,.cls-3{stroke-miterlimit:10;}.cls-2{fill:#161616;}.cls-3,.cls-4{stroke:#000;stroke-linecap:round;stroke-width:12px;}.cls-4{stroke-linejoin:round;}</style></defs><title>todo</title><rect class="cls-1" x="9" y="9" width="418.55" height="552.26" rx="47.47"/><path class="cls-2" d="M274.22,346.62a75.12,75.12,0,0,1-6.4-10.56,64.79,64.79,0,0,0,10.17-5c-.1-.1-.15-.18-.21-.23-.69-.55-1.39-1.09-2.06-1.65a.5.5,0,0,0-.61-.06,70.85,70.85,0,0,1-8.76,3.46,68.34,68.34,0,0,1-9.1,2.26c-1.76.31-3.53.58-5.31.72-1.38.11-2.76.21-4.14.26s-2.86.09-4.29.06c-1.27,0-2.53-.11-3.79-.23-1.64-.16-3.29-.32-4.92-.58-1.78-.28-3.55-.63-5.3-1a72.31,72.31,0,0,1-13.52-4.6c-.26-.12-.52-.23-.77-.36a.35.35,0,0,0-.41,0l-2.24,1.79s0,.08-.1.17a50.07,50.07,0,0,0,4.92,2.7c1.7.8,3.42,1.53,5.18,2.32a73.46,73.46,0,0,1-6.37,10.52c-.25-.07-.49-.13-.72-.21a99.27,99.27,0,0,1-11-4.25,98.22,98.22,0,0,1-10.75-5.76q-3.77-2.34-7.32-5a.85.85,0,0,1-.41-.69c0-.59-.1-1.19-.14-1.78-.07-1.16-.15-2.32-.19-3.48s-.08-2.47-.09-3.71c0-1.85,0-3.7,0-5.55,0-1.2.14-2.4.23-3.6.05-.78.11-1.55.19-2.32.12-1.18.22-2.37.39-3.55q.39-2.67.87-5.33a94.84,94.84,0,0,1,2.27-9.56,108.44,108.44,0,0,1,10.45-24c1.13-1.91,2.34-3.78,3.5-5.68a1.39,1.39,0,0,1,.63-.54,99.12,99.12,0,0,1,10.64-4.19,96.31,96.31,0,0,1,11.85-3.07c.43-.08.87-.17,1.31-.24s.41,0,.6.29c1,1.88,2,3.82,2.82,5.78.18.42.18.42.62.36,1.42-.18,2.84-.37,4.26-.53.88-.1,1.78-.16,2.67-.21,1.5-.08,3-.13,4.51-.18.87,0,1.75-.07,2.63-.07,1.07,0,2.15,0,3.22.1,1.28.06,2.55.14,3.83.27,1.66.16,3.31.39,5,.57,1.06.12.79.24,1.21-.65.84-1.76,1.68-3.52,2.54-5.28.26-.53.28-.52.85-.41a94.58,94.58,0,0,1,12,2.94,103.13,103.13,0,0,1,11,4.21,3.64,3.64,0,0,1,1.7,1.47c1.89,2.95,3.7,5.95,5.35,9a108,108,0,0,1,5.79,12.78A102.92,102.92,0,0,1,302,296.08c.68,2.81,1.26,5.64,1.68,8.5.25,1.75.49,3.51.69,5.27.14,1.34.2,2.7.31,4q.18,2.43.18,4.86c0,.46.08.92.08,1.38,0,1.58,0,3.16-.12,4.74s-.17,2.94-.27,4.41c0,.51-.11,1-.14,1.51a.66.66,0,0,1-.31.55c-1.26.89-2.49,1.8-3.76,2.67a96.81,96.81,0,0,1-8.67,5.28,93.51,93.51,0,0,1-12.24,5.55c-1.53.56-3.07,1.07-4.61,1.6Zm-38-41.77c-.08-.76-.12-1.51-.24-2.26a12,12,0,0,0-4.07-7.5,9.68,9.68,0,0,0-7.82-2.41,10,10,0,0,0-6.42,3.57,13.15,13.15,0,0,0-3.12,8,13,13,0,0,0,.34,3.73,12.16,12.16,0,0,0,4.46,7.13,9.38,9.38,0,0,0,9.73,1.37,10.94,10.94,0,0,0,5.79-5.7A14.14,14.14,0,0,0,236.22,304.85Zm28.71,12.4a9.76,9.76,0,0,0,4.37-1,11.2,11.2,0,0,0,5.13-5.18,13.76,13.76,0,0,0,1.31-8.25,12.23,12.23,0,0,0-3.63-7.31,9.81,9.81,0,0,0-8-2.88,9.16,9.16,0,0,0-3.25.9,11.29,11.29,0,0,0-5.45,5.76,13.46,13.46,0,0,0-1,7.82,12.47,12.47,0,0,0,4.06,7.56A9.86,9.86,0,0,0,264.93,317.25Z" transform="translate(-148 -217.63)"/><path d="M363.44,317.25h-9.51V279.12H339.6v-9.54h38.13v9.54H363.44Z" transform="translate(-148 -217.63)"/><path d="M428,293.62a23.94,23.94,0,0,1-.88,6.53,24.91,24.91,0,0,1-2.48,5.88,24.22,24.22,0,0,1-3.85,5,25.57,25.57,0,0,1-5,3.87,24.59,24.59,0,0,1-5.88,2.49,24.19,24.19,0,0,1-6.55.88,23.94,23.94,0,0,1-6.53-.88,25,25,0,0,1-5.89-2.49,25.63,25.63,0,0,1-5-3.87,24.67,24.67,0,0,1-3.87-5,24.5,24.5,0,0,1-2.49-19,23.65,23.65,0,0,1,2.49-5.88,24.63,24.63,0,0,1,14.76-11.32,23.94,23.94,0,0,1,6.53-.88,24.19,24.19,0,0,1,6.55.88,24.65,24.65,0,0,1,17.2,17.2A24.13,24.13,0,0,1,428,293.62Zm-9.47,0a14.68,14.68,0,0,0-1.2-5.9,15.37,15.37,0,0,0-3.24-4.82,15,15,0,0,0-4.82-3.24,15.15,15.15,0,0,0-11.82,0,15.37,15.37,0,0,0-4.82,3.24,15.06,15.06,0,0,0-3.25,4.82,14.68,14.68,0,0,0-1.2,5.9,14.42,14.42,0,0,0,1.2,5.86,15.31,15.31,0,0,0,8.07,8.07,15.27,15.27,0,0,0,11.82,0,15.25,15.25,0,0,0,4.82-3.26,15.79,15.79,0,0,0,3.24-4.81A14.42,14.42,0,0,0,418.52,293.62Z" transform="translate(-148 -217.63)"/><path d="M472.44,293.42a23.59,23.59,0,0,1-3.26,12,24.45,24.45,0,0,1-3.72,4.81,23.68,23.68,0,0,1-16.86,7H434.24V269.58H448.6a23.72,23.72,0,0,1,6.34.85,24.35,24.35,0,0,1,5.7,2.41,23.68,23.68,0,0,1,4.82,3.74,24.51,24.51,0,0,1,3.72,4.82,23.59,23.59,0,0,1,3.26,12Zm-9.54,0a14,14,0,0,0-1.12-5.55,14.31,14.31,0,0,0-3.06-4.54,14.52,14.52,0,0,0-4.55-3.08,13.94,13.94,0,0,0-5.57-1.13h-4.75v28.59h4.75a14.21,14.21,0,0,0,10.12-4.17,14.27,14.27,0,0,0,4.18-10.12Z" transform="translate(-148 -217.63)"/><path d="M525.46,293.62a24.33,24.33,0,0,1-.88,6.53A25.33,25.33,0,0,1,522.1,306a24.27,24.27,0,0,1-3.86,5,25.51,25.51,0,0,1-5,3.87,24.66,24.66,0,0,1-5.89,2.49,24.74,24.74,0,0,1-13.08,0A24.82,24.82,0,0,1,477,300.15a24.74,24.74,0,0,1,0-13.08,24.42,24.42,0,0,1,2.49-5.88,25.24,25.24,0,0,1,3.88-5,24.29,24.29,0,0,1,5-3.86,25.06,25.06,0,0,1,5.88-2.47,24.74,24.74,0,0,1,13.08,0,24.6,24.6,0,0,1,18.09,23.75Zm-9.48,0a14.85,14.85,0,0,0-1.19-5.9,15.23,15.23,0,0,0-3.25-4.82,15,15,0,0,0-4.81-3.24,15.15,15.15,0,0,0-11.82,0,15.26,15.26,0,0,0-4.82,3.24,15.09,15.09,0,0,0-3.26,4.82,14.68,14.68,0,0,0-1.2,5.9,14.42,14.42,0,0,0,1.2,5.86,15.38,15.38,0,0,0,8.08,8.07,15.27,15.27,0,0,0,11.82,0,15.21,15.21,0,0,0,4.81-3.26,15.65,15.65,0,0,0,3.25-4.81A14.58,14.58,0,0,0,516,293.62Z" transform="translate(-148 -217.63)"/><rect class="cls-3" x="50.14" y="168.03" width="66.46" height="66.46" rx="26.9"/><line class="cls-3" x1="156.96" y1="179.9" x2="379.29" y2="179.9"/><line class="cls-3" x1="156.96" y1="213.13" x2="379.29" y2="213.13"/><line class="cls-3" x1="156.96" y1="246.36" x2="379.29" y2="246.36"/><line class="cls-3" x1="156.96" y1="278.8" x2="379.29" y2="278.8"/><rect class="cls-3" x="50.14" y="326.27" width="66.46" height="66.46" rx="26.9"/><rect class="cls-3" x="50.14" y="462.46" width="66.46" height="66.46" rx="26.9"/><line class="cls-3" x1="156.96" y1="338.14" x2="379.29" y2="338.14"/><line class="cls-3" x1="156.96" y1="371.37" x2="379.29" y2="371.37"/><line class="cls-3" x1="156.96" y1="404.6" x2="379.29" y2="404.6"/><line class="cls-3" x1="156.96" y1="437.04" x2="379.29" y2="437.04"/><line class="cls-3" x1="156.96" y1="493.48" x2="379.29" y2="493.48"/><path class="cls-4" d="M209.22,414.14s13.32,7.12,16.15,16.62c0,0,36.07-54.6,63-54.6" transform="translate(-148 -217.63)"/><path class="cls-4" d="M209.22,569.25s13.32,7.13,16.15,16.62c0,0,36.07-54.59,63-54.59" transform="translate(-148 -217.63)"/></svg>