<svg id="Layer_1" data-name="Layer 1" xmlns="http://www.w3.org/2000/svg" viewBox="0 0 864.94 968.59"><defs><style>.cls-1{fill:#1d1d1b;}.cls-2{fill:#fff;}.cls-3{fill:#d4d4ff;}.cls-4{fill:none;}.cls-4,.cls-6{stroke:#1d1d1b;stroke-linecap:round;stroke-miterlimit:10;}.cls-5{fill:#6363fc;}.cls-6{fill:#bababa;stroke-width:11px;}</style></defs><title>SAED_LOGO</title><g id="Capa_1" data-name="Capa 1"><path class="cls-1" d="M493.46,969.39l-5.89-1.7c-4.61-1.24-154.48-41-360.61-45.24l-44.06-.92V33.16l43.89-1.09c1.09,0,11.08-.25,27.48-.25,43.44,0,127.72,1.63,204.15,12.57,44.85,6.41,81.56,15.33,109.1,26.5a186.09,186.09,0,0,1,32.36,16.69,174.06,174.06,0,0,1,24.51-13.33C551.62,62,588.82,52.3,635,45.34,712.85,33.6,800.25,31.85,845.42,31.85c16.81,0,27.1.24,27.53.25l43.89,1.1V921.56l-44.06.93c-205.07,4.26-357.49,44.36-360.89,45.27L506,969.4Zm6.44-220.26,4-1,1.17-.29,2.93-.74,6.05-1.49,5.07-1.22,3.93-.93,1.11-.26,4.63-1.08c2.83-.65,5.73-1.31,8.77-2l4.59-1c31.85-7,83-17,146.18-24.89l.91-.3h1.51l6.57-.82h0c3-.36,6-.72,9.22-1.08l3.51-.4h0l5-.55,7.49-.85,0,0,5.57-.58,8.87-.89c3.83-.38,7.73-.74,11.65-1.1s7.92-.71,11.9-1l5.45-.45,6.2-.49,1.45-.11c3.49-.27,7-.53,10.46-.78s6.78-.47,10.19-.69l6.77-.43c5.44-.33,10.83-.64,16.06-.91l3.44-.18h.33l5.91-.29V122c-44.54.48-115.52,2.9-178.45,12.4-38.09,5.74-67.41,13.15-87.14,22-9.3,4.17-14.33,7.82-16.48,9.8l-.29,11.64-89.23.32-.29-12c-2.21-2.06-8-6.51-21.26-11.88-20.77-8.42-50.39-15.43-88-20.82-61.54-8.8-129.81-11.09-172.76-11.55V702.25l1.61.07,2.89.14,3.3.16,5.32.29,2.62.14,2.19.13c2.66.14,5.36.3,8,.47,19.21,1.17,38.67,2.69,57.8,4.5,2.35.22,4.71.44,7.06.68,6.15.6,12.33,1.24,18.39,1.9l8.13.9,3.72.43c2.47.28,4.92.58,7.36.87,4.49.53,9.2,1.11,14.35,1.77l3.7.48.19,0,.48.06,2.61.34,6.87.93.38.05c3.36.45,6.67.92,9.95,1.39,2.17.3,4.41.63,6.62.95l5.55.82,1.06.16,4.11.62,2.39.37,2.33.36,7,1.09,3.83.62c6.11,1,12.29,2,18.4,3.09l2,.35,5,.88c4.82.87,9.52,1.72,14.07,2.57l2.63.49,5.26,1,2.54.48,5,1,2.66.53,4.19.84c6,1.21,12,2.47,18.41,3.85l7,1.52,5.57,1.26,2.07.46.9.21,3.69.84,3.55.84,2.11.49,2.6.62c3.47.83,6.7,1.62,9.66,2.36l1.41.35,1.88.47,1.56.4,2.2.56,2.19.57.37.1Z" transform="translate(-67.4 -16.32)"/><path class="cls-2" d="M902.12,17.33l-28.77-.72c-.46,0-10.89-.26-27.93-.26-45.6,0-133.88,1.78-212.76,13.67C585.12,37.19,546.55,47.31,518,60.11a199.07,199.07,0,0,0-18.17,9.27,212.22,212.22,0,0,0-26.52-12.85C444.64,44.88,406.71,35.64,360.61,29,283.23,18,198.12,16.32,154.27,16.32c-16.53,0-26.73.23-27.84.26l-28.79.71L67.4,18V936.71l30.36.63,28.88.6c202.5,4.22,350.85,43.1,356.79,44.68l3.62,1,4.2,1.21h16.87l4.12-1.16,3.71-1c4.53-1.2,155.63-40.55,357.14-44.74l28.91-.61,30.34-.64V18.09Zm-.78,889.05-28.89.61c-208.26,4.33-363.16,45.41-364.66,45.82l-3.9,1.09h-8.23l-3.91-1.13c-3.41-.93-155.81-41.47-364.47-45.81l-28.88-.6V48.28l28.77-.71c.41,0,10.42-.25,27.1-.25,43,0,126.46,1.61,202,12.41C399.84,66,435.33,74.56,461.69,85.25q22.95,9.31,38.21,21.45a142.93,142.93,0,0,1,30.84-18.31c25.93-11.64,61.78-21,106.54-27.72,76.88-11.59,163.41-13.32,208.14-13.32,16.71,0,26.73.24,27.15.25l28.77.72Z" transform="translate(-67.4 -16.32)"/><path class="cls-2" d="M842.34,106.35V717.14q-4.11.15-8.19.33l-4.07.18-8.39.4-3.72.19q-8,.42-15.91.9l-6.73.43-10.08.68-10.36.77-1.52.12c-2,.15-4.06.31-6.07.48l-5.43.45q-5.93.49-11.76,1t-11.57,1.1l-8.79.88q-6.54.67-12.93,1.38h0l-8.46,1h0q-8.42,1-16.55,2h0c-61.2,7.63-111.33,17.17-146.25,24.83l-4.57,1q-4.49,1-8.59,1.94l-4,.93-1.89.44-3.63.86-5.11,1.23-3.17.78-2.67.66-3.07.77-1.81.46q-3.12.79-5.66,1.47l-1.41.37-2.58-.68-1.06-.28-.36-.09-2.5-.65-.28-.07L492,763.1l-1.16-.3-1.21-.3-1.91-.48-1.24-.31c-2.93-.73-6.14-1.52-9.62-2.35l-2.54-.6-2.76-.65-2.55-.6-3.89-.89-3-.67-2.44-.55-3-.68-4.91-1.07-2.07-.45q-8.56-1.85-18.25-3.81L424.71,748l-5-1-7.68-1.47-2.63-.49c-4.53-.85-9.21-1.7-14-2.56l-7-1.22q-8.82-1.53-18.2-3.05l-3.77-.61-6.22-1-3.15-.49-6.38-1-1-.15-5.51-.81-6.6-.95q-4.87-.71-9.87-1.38l-.23,0L318,730.63l-.79-.1-3.5-.45q-7-.9-14.23-1.76l-7.27-.86-3.67-.42-1.07-.12-7-.78q-9-1-18.25-1.89l-7-.67q-27.59-2.61-57.33-4.46c-2.64-.17-5.3-.32-8-.47l-2-.12-2.63-.14-5.41-.29-3.12-.15-2.93-.14-3.86-.18q-6.23-.28-12.53-.52V106.32c42.26.08,120.36,1.78,190.46,11.81,38.89,5.57,69.72,12.9,91.66,21.8,22.67,9.19,30,17.84,30.73,21.51l.09.41c0,.1,0,.32,0,.72l59-.21c.11-4.37,8-12.29,25.54-20.14,21-9.45,51.72-17.25,91.18-23.2C717.45,108.25,798.46,106.43,842.34,106.35Z" transform="translate(-67.4 -16.32)"/><path class="cls-3" d="M842.34,106.35V717.14q-4.11.15-8.19.33l-4.07.18-8.39.4-3.72.19q-8,.42-15.91.9l-6.73.43-10.08.68-10.36.77-1.52.12c-2,.15-4.06.31-6.07.48l-5.43.45q-5.93.49-11.76,1t-11.57,1.1l-8.79.88q-6.54.67-12.93,1.38h0l-8.46,1h0q-8.42,1-16.55,2h0c-61.2,7.63-111.33,17.17-146.25,24.83l-4.57,1q-4.49,1-8.59,1.94l-4,.93-1.89.44-3.63.86-5.11,1.23-3.17.78-2.67.66-3.07.77-1.81.46q-3.12.79-5.66,1.47l-1.41.37-2.58-.68-1.06-.28-.36-.09-2.5-.65-.28-.07L492,763.1l-1.16-.3-1.21-.3-1.91-.48-1.24-.31c-2.93-.73-6.14-1.52-9.62-2.35l-2.54-.6-2.76-.65-2.55-.6-3.89-.89-3-.67-2.44-.55-3-.68-4.91-1.07-2.07-.45q-8.56-1.85-18.25-3.81L424.71,748l-5-1-7.68-1.47-2.63-.49c-4.53-.85-9.21-1.7-14-2.56l-7-1.22q-8.82-1.53-18.2-3.05l-3.77-.61-6.22-1-3.15-.49-6.38-1-1-.15-5.51-.81-6.6-.95q-4.87-.71-9.87-1.38l-.23,0L318,730.63l-.79-.1-3.5-.45q-7-.9-14.23-1.76l-7.27-.86-3.67-.42-1.07-.12-7-.78q-9-1-18.25-1.89l-7-.67q-27.59-2.61-57.33-4.46c-2.64-.17-5.3-.32-8-.47l-2-.12-2.63-.14-5.41-.29-3.12-.15-2.93-.14-3.86-.18q-6.23-.28-12.53-.52V106.32c42.26.08,120.36,1.78,190.46,11.81,38.89,5.57,69.72,12.9,91.66,21.8,22.67,9.19,30,17.84,30.73,21.51l.09.41c0,.1,0,.32,0,.72l59-.21c.11-4.37,8-12.29,25.54-20.14,21-9.45,51.72-17.25,91.18-23.2C717.45,108.25,798.46,106.43,842.34,106.35Z" transform="translate(-67.4 -16.32)"/><path class="cls-4" d="M499.89,795.74a.06.06,0,0,1-.05,0v0Z" transform="translate(-67.4 -16.32)"/><path class="cls-5" d="M871.84,745.79v131.7c-212.73,4.43-368.45,45.92-372,46.9h-.05c-3.5-1-159.22-42.51-371.94-46.93V745.76q5,.11,9.93.24,4.66.12,9.28.27l.56,0,4.89.17q4.4.15,8.74.33,7.74.32,15.37.7l7.84.41,6.55.37,4.47.27q14.92.91,29.32,2.05l7.2.58,5.81.49,5.06.44,10,.92,5,.48,1.15.11,6.76.68,9.69,1,8,.89h0q6,.67,11.84,1.37l.38,0,7.38.9.61.08,7,.89.83.11,6.7.88,5.57.75,6.83,1,5.56.79,5.5.8,3.61.54,3.59.54q12.35,1.88,23.85,3.8l1.14.19,6.1,1,6,1,6.26,1.11.3.05,6.66,1.21q9.84,1.82,18.84,3.58l.44.09,4.81.95.58.12,3.54.71,3.46.71.77.16q7.59,1.56,14.41,3l2.25.49,5.43,1.2q6.6,1.49,12.34,2.83l2.25.53,3.45.82,3.27.79,3.08.75,1.42.35,4,1,.14,0,1.5.38,4.07,1,1,.26,1.71.45,5,1.34.69.19c.35.1.65.19.91.25l.3.09.2.06.24.07.5.14h.05C503.39,794.76,659.11,750.21,871.84,745.79Z" transform="translate(-67.4 -16.32)"/><path class="cls-1" d="M871.22,716.29q-14.62.3-28.88.85-4.11.15-8.19.33l-4.07.18-8.39.4-3.72.19q-8,.42-15.91.9l-6.73.43-10.08.68-10.36.77-1.52.12-6.07.48-5.43.45q-5.93.49-11.76,1t-11.57,1.1l-8.79.88q-6.54.67-12.93,1.38h0l-8.46,1h0q-8.4,1-16.55,2h0c-61.16,7.66-111.31,17.19-146.25,24.83l-4.57,1c-3,.67-5.85,1.31-8.59,1.94l-4,.93-1.89.44-3.63.86-5.11,1.23-3.17.78-2.67.66-3.07.77-1.81.46q-3.12.79-5.66,1.47l-1.41.37-2.58-.68-1.06-.28-.36-.09-2.5-.65-.28-.07L492,763.1l-1.16-.3-1.21-.3-1.91-.48-1.24-.31c-2.93-.73-6.14-1.52-9.62-2.35l-2.54-.6-2.76-.65-2.55-.6-3.89-.89-3-.67-2.44-.55-3-.68-4.91-1.07-2.07-.45q-8.56-1.85-18.25-3.81L424.71,748l-5-1-7.68-1.47-2.63-.49c-4.53-.85-9.21-1.7-14-2.56l-7-1.22q-8.82-1.53-18.2-3.05l-3.77-.61-6.22-1-3.15-.49-6.38-1-1-.15-5.51-.81-6.6-.95c-3.25-.47-6.54-.92-9.87-1.38l-.23,0L318,730.63l-.79-.1-3.5-.45q-7-.9-14.23-1.76l-7.27-.86-3.67-.42-1.07-.12-7-.78q-9-1-18.25-1.89l-7-.67q-27.59-2.61-57.33-4.46c-2.64-.17-5.3-.32-8-.47l-2-.12-2.63-.14-5.41-.29-3.12-.15-2.93-.14-3.86-.18q-6.23-.28-12.53-.52-14.25-.54-28.89-.85h-.61V877.46c212.72,4.42,368.44,45.92,371.94,46.93h.05c3.5-1,159.22-42.47,372-46.9V716.28ZM842.34,848.83c-176.53,6.48-309.41,36.9-342.45,45.11-33.25-8.32-165.2-38.67-342.49-45.15V776.16l2.68.11,3.51.14,7.29.34,4.45.22,4.43.23c3,.15,5.89.32,8.81.49l4.37.26,7.82.5,4.41.29,4.39.31,8.7.64.44,0,7.46.59q6.78.56,13.44,1.15l4.19.38c1.74.15,3.46.31,5.17.48l6,.58,1.94.19q5.79.57,11.49,1.18l4,.43q6,.64,11.86,1.33L292,787c23.77,2.86,45.9,6,66.12,9.27l8.1,1.32,6.77,1.14,4.42.76,4.35.75,6.06,1.08c1.8.32,3.59.64,5.35,1l.61.11,5.29,1,.17,0,2,.38,5.9,1.12,9.83,1.93,1.13.22,3.71.75,5.42,1.11,3.49.73,1.72.36,1.45.31c1,.21,2.06.43,3.07.65l4.35.94,9.11,2,4.53,1,4.27,1,1.39.32,7.63,1.82,3.44.84,1.34.33,5.87,1.47.14,0,2.45.63,2,.52.19,0c4.13,1.09,6.7,1.8,7.59,2.06h0l.33.09,4.07,1.16H504l4.1-1.15h0l.16,0,1.24-.35.44-.12.3-.08c.66-.19,1.41-.39,2.25-.61l.44-.12.14,0,1.45-.39c32-8.53,158.24-39.52,327.85-46.15v72.65Z" transform="translate(-67.4 -16.32)"/><path class="cls-4" d="M499.89,927.43h0" transform="translate(-67.4 -16.32)"/><path class="cls-1" d="M300.06,239.55A53.28,53.28,0,0,1,304.45,218,56.36,56.36,0,0,1,334,188.45a53.24,53.24,0,0,1,21.55-4.39h84.92v37H355.55a18.3,18.3,0,0,0-18.45,18.45,18.77,18.77,0,0,0,1.42,7.3,18,18,0,0,0,3.93,5.93,18.34,18.34,0,0,0,13.1,5.36h37a54.56,54.56,0,0,1,21.62,4.32A55.16,55.16,0,0,1,443.76,292a56.06,56.06,0,0,1,0,43.16,55.79,55.79,0,0,1-11.87,17.62,56.63,56.63,0,0,1-17.68,11.94,53.92,53.92,0,0,1-21.62,4.39H310.38v-37h82.21a18.5,18.5,0,0,0,13.1-31.56,18.34,18.34,0,0,0-13.1-5.35h-37A53.41,53.41,0,0,1,334,290.79a56.94,56.94,0,0,1-17.62-11.94,56.32,56.32,0,0,1-11.93-17.68A53.71,53.71,0,0,1,300.06,239.55Z" transform="translate(-67.4 -16.32)"/><path class="cls-1" d="M708.7,369.13h-37v-37H597.58v37H560.67v-111a72.15,72.15,0,0,1,5.81-28.84,75.3,75.3,0,0,1,15.81-23.56,74,74,0,0,1,23.49-15.87,74.51,74.51,0,0,1,57.69,0,74.23,74.23,0,0,1,39.42,39.43,72.15,72.15,0,0,1,5.81,28.84v111Zm-37-73.95v-37a36.2,36.2,0,0,0-2.9-14.39A37,37,0,0,0,649,224a37.15,37.15,0,0,0-28.78,0,37,37,0,0,0-19.75,19.75,36.2,36.2,0,0,0-2.9,14.39v37Z" transform="translate(-67.4 -16.32)"/><path class="cls-1" d="M437.76,686.29H310.9V501.23H437.76v37H347.94v37h60.78v37H347.94v36.91h89.82Z" transform="translate(-67.4 -16.32)"/><path class="cls-1" d="M702.38,593.76a91.51,91.51,0,0,1-12.65,46.65,95.16,95.16,0,0,1-14.46,18.71,91.81,91.81,0,0,1-65.43,27.17H554.09V501.23h55.75a91,91,0,0,1,24.59,3.29,91.93,91.93,0,0,1,40.84,23.87,95.45,95.45,0,0,1,14.46,18.71,91.51,91.51,0,0,1,12.65,46.66Zm-37,0A53.88,53.88,0,0,0,661,572.21a55.67,55.67,0,0,0-11.87-17.62,56.63,56.63,0,0,0-17.68-11.94,53.92,53.92,0,0,0-21.62-4.39H591.39v111h18.45a54.56,54.56,0,0,0,21.62-4.32A55.25,55.25,0,0,0,661,615.37,54.31,54.31,0,0,0,665.34,593.76Z" transform="translate(-67.4 -16.32)"/><path class="cls-6" d="M502.55,147.41" transform="translate(-67.4 -16.32)"/></g></svg>